<svg width="16" height="16" fill="none" xmlns="http://www.w3.org/2000/svg"><path d="m1.333 4.667 5.444 3.81c.44.309.66.463.9.523.212.052.434.052.645 0 .24-.06.46-.214.901-.523l5.444-3.81M4.533 13.333h6.934c1.12 0 1.68 0 2.108-.218a2 2 0 0 0 .874-.874c.218-.428.218-.988.218-2.108V5.867c0-1.12 0-1.68-.218-2.108a2 2 0 0 0-.874-.874c-.428-.218-.988-.218-2.108-.218H4.533c-1.12 0-1.68 0-2.108.218a2 2 0 0 0-.874.874c-.218.427-.218.988-.218 2.108v4.266c0 1.12 0 1.68.218 2.108a2 2 0 0 0 .874.874c.428.218.988.218 2.108.218Z"/></svg>
